<svg width="32" height="32" viewBox="0 0 32 32" fill="none" xmlns="http://www.w3.org/2000/svg">
<path d="M28.608 24.1104C28.4702 24.5079 28.1814 24.8351 27.8041 25.0212C27.4268 25.2074 26.9914 25.2374 26.5922 25.1049C26.1929 24.9724 25.8619 24.6879 25.6708 24.3131C25.4797 23.9384 25.4439 23.5034 25.5712 23.1024C26.1255 21.4123 26.4054 19.6443 26.4 17.8656C26.4 10.736 21.9904 6.0064 16 6.0064C10.0096 6.0064 5.59996 10.736 5.59996 17.8656C5.59996 18.4942 5.63378 19.1164 5.70038 19.7293C5.75069 20.1924 5.81972 20.6501 5.907 21.1011C5.98912 21.5253 6.08739 21.9436 6.20145 22.3548C6.27133 22.6068 6.34713 22.856 6.42876 23.1024C6.45865 23.1966 6.47954 23.2926 6.49154 23.3893C6.51159 23.5509 6.50682 23.7142 6.4777 23.8738C6.45003 24.0253 6.40037 24.1734 6.32913 24.3131C6.30432 24.3618 6.27715 24.4089 6.24777 24.4544C6.19643 24.5339 6.13836 24.6084 6.0744 24.677C5.99511 24.7621 5.90677 24.8383 5.81097 24.9043C5.74409 24.9503 5.67357 24.9914 5.59996 25.0269C5.53798 25.0569 5.4738 25.083 5.40776 25.1049C5.00849 25.2374 4.57309 25.2074 4.19581 25.0212C3.81854 24.8351 3.52975 24.5079 3.39196 24.1104C2.72958 22.0952 2.39466 19.9868 2.39996 17.8656C2.39996 9.0176 8.19036 2.8064 16 2.8064C23.8096 2.8064 29.6 9.0176 29.6 17.8656C29.6 20.032 29.2608 22.1424 28.608 24.1088V24.1104Z" fill="white" fill-opacity="0.75"/>
<path d="M9.56311 27.2544C8.29506 27.23 7.08821 26.7047 6.20622 25.7934C5.32422 24.882 4.83876 23.6586 4.85591 22.3904V22.3552C4.86444 21.7273 4.99701 21.1072 5.246 20.5307C5.495 19.9542 5.8555 19.4326 6.30678 18.9959C6.75806 18.5592 7.29122 18.216 7.87559 17.986C8.45997 17.7561 9.08404 17.6439 9.71191 17.656C10.1343 17.6644 10.5362 17.8396 10.83 18.1432C11.1237 18.4468 11.2855 18.8544 11.2799 19.2768L11.1935 25.6768C11.1906 25.8876 11.146 26.0958 11.0624 26.2893C10.9788 26.4828 10.8578 26.6579 10.7063 26.8045C10.5547 26.9511 10.3758 27.0663 10.1796 27.1435C9.9834 27.2208 9.7739 27.2584 9.56311 27.2544ZM22.5423 17.6C23.8104 17.6244 25.0172 18.1497 25.8992 19.0611C26.7812 19.9724 27.2667 21.1958 27.2495 22.464V22.4992C27.2412 23.1249 27.1096 23.7429 26.8624 24.3178C26.6152 24.8927 26.2572 25.4133 25.8088 25.8498C25.3604 26.2863 24.8304 26.6302 24.2491 26.8619C23.6677 27.0936 23.0464 27.2085 22.4207 27.2H22.3951C21.9721 27.192 21.5696 27.0168 21.2754 26.7128C20.9813 26.4088 20.8195 26.0006 20.8255 25.5776L20.9119 19.1776C20.9148 18.9668 20.9594 18.7586 21.043 18.5651C21.1266 18.3716 21.2476 18.1965 21.3992 18.0499C21.5507 17.9033 21.7297 17.7881 21.9258 17.7109C22.122 17.6336 22.3315 17.596 22.5423 17.6Z" fill="white" fill-opacity="0.75"/>
<path d="M13.2857 22.7143L15 24.4286L17 21.8571L19 24.1429M19 24.1429H18.7143H18.4286L18.1429 23.8571L17 22.4286L15 25L13 23V22.7143V22.4286H13.2857H13.5714L15 23.8571L17 21L18.7143 23.2857L19 23.5714V24.1429Z" stroke="white" stroke-opacity="0.75"/>
</svg>
