<svg width="46" height="46" viewBox="0 0 46 46" fill="none" xmlns="http://www.w3.org/2000/svg">
<rect x="13" y="11" width="22" height="22" fill="white"/>
<path d="M23 3.83333C12.4146 3.83333 3.83337 12.4145 3.83337 23C3.83337 33.5854 12.4146 42.1667 23 42.1667C33.5854 42.1667 42.1667 33.5854 42.1667 23C42.1667 12.4145 33.5854 3.83333 23 3.83333ZM20.125 15.8125V30.1875C20.125 30.9814 19.4814 31.625 18.6875 31.625C17.8936 31.625 17.25 30.9814 17.25 30.1875V15.8125C17.25 15.0186 17.8936 14.375 18.6875 14.375C19.4814 14.375 20.125 15.0186 20.125 15.8125ZM28.75 15.8125V30.1875C28.75 30.9814 28.1064 31.625 27.3125 31.625C26.5187 31.625 25.875 30.9814 25.875 30.1875V15.8125C25.875 15.0186 26.5187 14.375 27.3125 14.375C28.1064 14.375 28.75 15.0186 28.75 15.8125Z" fill="url(#paint0_linear_163_264)"/>
<defs>
<linearGradient id="paint0_linear_163_264" x1="34.5" y1="8" x2="7.5" y2="36" gradientUnits="userSpaceOnUse">
<stop stop-color="#18C8FD"/>
<stop offset="1" stop-color="#5150FB"/>
</linearGradient>
</defs>
</svg>
