<svg width="46" height="46" viewBox="0 0 46 46" fill="none" xmlns="http://www.w3.org/2000/svg">
<rect x="11" y="12" width="25" height="22" fill="white"/>
<path d="M3.83337 23C3.83337 12.4145 12.4146 3.83333 23 3.83333C33.5854 3.83333 42.1667 12.4145 42.1667 23C42.1667 33.5854 33.5854 42.1667 23 42.1667C12.4146 42.1667 3.83337 33.5854 3.83337 23ZM20.8066 15.6304C19.2098 14.746 17.25 15.9008 17.25 17.7262V28.2739C17.25 30.0993 19.2098 31.2541 20.8066 30.3698L31.8424 24.2575C32.2997 24.0043 32.5834 23.5227 32.5834 23C32.5834 22.4773 32.2997 21.9959 31.8424 21.7425L20.8066 15.6304Z" fill="url(#paint0_linear_163_266)"/>
<defs>
<linearGradient id="paint0_linear_163_266" x1="7" y1="34" x2="36" y2="11" gradientUnits="userSpaceOnUse">
<stop stop-color="#4C59FB"/>
<stop offset="1" stop-color="#1BC0FD"/>
</linearGradient>
</defs>
</svg>
